<?xml version="1.0" standalone="no"?>
<!DOCTYPE svg PUBLIC "-//W3C//DTD SVG 20010904//EN"
 "http://www.w3.org/TR/2001/REC-SVG-20010904/DTD/svg10.dtd">
<svg version="1.0" xmlns="http://www.w3.org/2000/svg"
 width="161.000000pt" height="161.000000pt" viewBox="0 0 161.000000 161.000000"
 preserveAspectRatio="xMidYMid meet">
<metadata>
Created by potrace 1.11, written by Peter Selinger 2001-2013
</metadata>
<g transform="translate(0.000000,161.000000) scale(0.100000,-0.100000)"
fill="#000000" stroke="none">
<path d="M750 1580 c-95 -21 -145 -47 -208 -109 -150 -148 -191 -365 -103
-543 15 -31 18 -46 10 -60 -9 -17 -18 -19 -75 -13 -69 8 -87 2 -140 -52 -45
-45 -67 -109 -72 -205 -5 -91 -22 -128 -60 -128 -14 0 -14 -2 -2 -14 46 -43
150 -42 245 3 37 17 69 31 71 31 11 0 1 -25 -22 -56 -30 -39 -25 -42 22 -13
51 31 110 104 124 153 15 53 3 140 -23 173 -6 9 -4 15 6 19 10 4 35 -10 66
-36 46 -39 50 -46 47 -79 -4 -39 -38 -114 -62 -139 -8 -7 -14 -17 -14 -20 0
-4 -31 -41 -70 -82 -38 -41 -66 -77 -62 -81 4 -3 65 -50 137 -104 72 -53 144
-108 160 -120 96 -74 127 -95 133 -91 4 2 7 26 6 53 -2 55 45 209 76 253 11
15 20 31 20 35 0 3 17 31 38 61 l37 55 75 -5 c41 -3 91 -10 110 -16 61 -18
118 -13 144 13 20 20 23 31 19 71 -4 38 -1 54 16 77 21 28 19 59 -3 59 -6 0 4
9 22 20 37 23 37 23 18 53 -34 53 -31 66 20 88 94 40 94 41 -24 173 l-35 39
22 16 22 17 -28 -1 -28 0 0 90 c0 72 -4 100 -23 139 -12 27 -25 67 -28 88 -5
28 -20 52 -57 89 -86 87 -155 110 -342 113 -72 2 -136 -3 -185 -14z m158 -119
c51 -15 97 -48 146 -102 145 -161 88 -423 -112 -517 -75 -36 -201 -37 -275 -4
-123 55 -205 194 -194 327 17 217 226 359 435 296z"/>
<path d="M750 1253 c0 -16 34 -116 69 -205 10 -28 41 -39 41 -15 0 6 -18 61
-40 121 -22 61 -40 111 -40 113 0 2 -7 3 -15 3 -8 0 -15 -8 -15 -17z"/>
<path d="M620 1219 c-89 -49 -82 -42 -85 -73 -4 -30 0 -33 89 -80 73 -39 93
-37 83 6 -4 15 -23 32 -53 47 l-47 22 29 20 c16 10 34 19 41 19 7 0 17 8 22
18 10 19 11 62 1 62 -3 0 -39 -19 -80 -41z"/>
<path d="M916 1248 c-11 -33 0 -50 46 -75 l49 -27 -23 -18 c-13 -10 -28 -18
-34 -18 -26 0 -55 -62 -35 -74 5 -3 42 12 82 33 67 36 74 43 77 73 2 32 0 35
-78 76 -57 30 -81 39 -84 30z"/>
</g>
</svg>
